Coordinates
version=1
nRows=23
nColumns=38
inDegrees=no

Units are S.I. units (second, meters, Newtons, ...)
If the header above contains a line with 'inDegrees', this indicates whether rotational values are in degrees (yes) or radians (no).

endheader
time	pelvis_tilt	pelvis_list	pelvis_rotation	pelvis_tx	pelvis_ty	pelvis_tz	hip_flexion_r	hip_adduction_r	hip_rotation_r	knee_angle_r	ankle_angle_r	subtalar_angle_r	mtp_angle_r	hip_flexion_l	hip_adduction_l	hip_rotation_l	knee_angle_l	ankle_angle_l	subtalar_angle_l	mtp_angle_l	lumbar_extension	lumbar_bending	lumbar_rotation	arm_flex_r	arm_add_r	arm_rot_r	elbow_flex_r	pro_sup_r	wrist_flex_r	wrist_dev_r	arm_flex_l	arm_add_l	arm_rot_l	elbow_flex_l	pro_sup_l	wrist_flex_l	wrist_dev_l
0	2.16768	1.5509	2.5712	0.656312	1.87043	0.959383	-0.031349	-0.0330058	-0.167137	0.0575743	0.0228208	0	0	-0.113106	0.0394509	-0.0923986	0	0.0573697	0	0	0.0185353	-0.0364839	-0.0122211	-0.0176354	-0.0591735	-0.381039	0.184022	1.5708	0	0	-0.0179513	-0.113628	-0.00758658	0.264622	1.33574	0	0
0.01	2.05912	1.55139	2.6807	0.656569	1.86983	0.959439	-0.0344257	-0.0335531	-0.16729	0.0575363	0.0229314	0	0	-0.115052	0.0404022	-0.0914534	0	0.0579296	0	0	0.0187855	-0.0367848	-0.0108741	-0.01855	-0.0591088	-0.37041	0.186794	1.5708	0	0	-0.0209757	-0.110601	0.0087159	0.266706	1.33332	0	0
0.02	1.94987	1.55163	2.79115	0.656823	1.86926	0.959538	-0.0378034	-0.034151	-0.167713	0.0567883	0.0227115	0	0	-0.116924	0.0411139	-0.091365	0	0.0586676	0	0	0.0189943	-0.0370302	-0.0099362	-0.019209	-0.0593633	-0.359815	0.188879	1.5708	0	0	-0.0246643	-0.107791	0.0247727	0.270333	1.33097	0	0
0.03	1.88193	1.55159	2.86022	0.657108	1.86878	0.959591	-0.0401385	-0.0347988	-0.168192	0.0562439	0.0226354	0	0	-0.117657	0.0417706	-0.0914894	0	0.059274	0	0	0.0198773	-0.0368304	-0.00909307	-0.0196981	-0.0599161	-0.349428	0.191158	1.5708	0	0	-0.027934	-0.103971	0.0354191	0.273534	1.3278	0	0
0.04	1.83258	1.55157	2.91098	0.657427	1.86833	0.959629	-0.0425986	-0.0352854	-0.168829	0.0549497	0.0223736	0	0	-0.118	0.042341	-0.0913264	0.000514516	0.0597462	0	0	0.0208825	-0.0362431	-0.00821802	-0.0171598	-0.0600926	-0.357311	0.187398	1.5708	0	0	-0.0305692	-0.0993182	0.0387062	0.275767	1.33861	0	0
0.05	1.73219	1.55104	3.01389	0.657615	1.8678	0.959686	-0.0475766	-0.035958	-0.169988	0.0512912	0.0216982	0	0	-0.119464	0.0432421	-0.090118	0.0022305	0.0602658	0	0	0.0214304	-0.035826	-0.00655059	-0.0145724	-0.0596045	-0.373017	0.181866	1.5708	0	0	-0.0261974	-0.115331	0.031641	0.286619	1.5708	0	0
0.06	1.7579	1.55247	2.98929	0.65808	1.86725	0.959715	-0.049864	-0.0346508	-0.169717	0.0480174	0.0200942	0	0	-0.118879	0.0422408	-0.0905146	0.00366569	0.0611136	0	0	0.023602	-0.033575	-0.00760244	-0.0143942	-0.0611791	-0.361292	0.183401	1.5708	0	0	-0.037321	-0.0893595	0.0351104	0.281811	1.40318	0	0
0.07	2.8331	1.55397	1.92149	0.658872	1.86748	0.95775	-0.0360049	-0.0208983	-0.172971	0.0485237	0.0204269	0	0	-0.0889218	0.0291011	-0.0816835	0.0240211	0.0687306	0	0	0.0401932	-0.0181561	-0.0126694	-0.0171615	-0.0653996	-0.354979	0.186558	1.5708	0	0	-0.0430886	-0.0823618	0.0398923	0.287795	1.42116	0	0
0.08	2.87623	1.55527	1.88018	0.658966	1.86702	0.957805	-0.0404791	-0.0192174	-0.172382	0.0435997	0.0184987	0	0	-0.0896758	0.0278891	-0.0812619	0.0251576	0.0692182	0	0	0.0409437	-0.0163727	-0.0124713	-0.0175016	-0.0659367	-0.350338	0.188222	1.5708	0	0	-0.0475358	-0.079276	0.0447481	0.294724	1.4413	0	0
0.09	1.64881	1.55548	3.10381	0.658449	1.8658	0.959829	-0.0619865	-0.0302428	-0.168717	0.034234	0.0149582	0	0	-0.120038	0.0388518	-0.0904366	0.00798772	0.0636318	0	0	0.0271715	-0.0283964	-0.00673502	-0.0166304	-0.0629797	-0.344997	0.190182	1.5708	0	0	-0.050519	-0.0797861	0.0484322	0.301276	1.46729	0	0
0.1	1.62166	1.5562	3.13327	0.658663	1.86538	0.959837	-0.065432	-0.0290347	-0.168799	0.0301476	0.0134963	0	0	-0.11992	0.037985	-0.0901098	0.00966299	0.0647018	0	0	0.0285095	-0.0267726	-0.00691857	-0.0182274	-0.0636675	-0.338107	0.19412	1.5708	0	0	-0.0537444	-0.0773424	0.0527257	0.30578	1.49824	0	0
0.11	1.60041	1.55672	-3.12653	0.658839	1.86503	0.959834	-0.0682543	-0.0280436	-0.168837	0.0268327	0.0123563	0	0	-0.119526	0.0373082	-0.0895246	0.0115112	0.065803	0	0	0.0298726	-0.0254202	-0.00674433	-0.0196052	-0.0643032	-0.332502	0.197235	1.5708	0	0	-0.0556571	-0.0755344	0.0599924	0.308401	1.52539	0	0
0.12	1.56482	1.55695	-3.08914	0.658958	1.86468	0.959843	-0.0708636	-0.0274003	-0.169005	0.0242145	0.0115944	0	0	-0.119725	0.0369204	-0.0887374	0.0126775	0.0664653	0	0	0.0308181	-0.0244931	-0.00625811	-0.0204615	-0.0647518	-0.330223	0.199299	1.5708	0	0	-0.057861	-0.0749395	0.0678983	0.312884	1.53959	0	0
0.13	1.36212	1.55474	-2.88717	0.65844	1.86451	0.95998	-0.0755508	-0.0284165	-0.166725	0.0225485	0.0118587	0	0	-0.12324	0.0383469	-0.0903414	0.0132872	0.0666625	0	0	0.0273803	-0.026619	-0.0034174	-0.0203136	-0.0636144	-0.326935	0.203336	1.5708	0	0	-0.0595471	-0.0774607	0.0762982	0.321085	1.5476	0	0
0.14	1.52022	1.5569	-3.04231	0.659092	1.86393	0.959798	-0.0743157	-0.0267845	-0.169153	0.0213456	0.0114102	0	0	-0.120138	0.0369763	-0.0872893	0.0144976	0.0676144	0	0	0.0330065	-0.0232333	-0.00397823	-0.0229241	-0.0654037	-0.325968	0.206224	1.5708	0	0	-0.0623372	-0.0762339	0.0790812	0.324508	1.54745	0	0
0.15	1.95264	1.55637	2.7936	0.658481	1.86197	0.959194	-0.0673592	-0.0280247	-0.154632	0.0227603	0.013169	0	0	-0.120962	0.0394806	-0.103907	0.00599847	0.066472	0	0	0.0473085	-0.0196946	0.0134577	-0.0315121	-0.0686163	-0.3213	0.210351	1.5708	0	0	-0.0704894	-0.0746784	0.0841803	0.328925	1.53555	0	0
0.16	1.49989	1.55625	-3.02233	0.659047	1.86322	0.959685	-0.0753345	-0.0275276	-0.168435	0.0218742	0.0132645	0	0	-0.121165	0.0379314	-0.0884729	0.0149376	0.0687898	0	0	0.0351089	-0.0226973	0.000204146	-0.0249567	-0.065876	-0.31908	0.212543	1.5708	0	0	-0.0659402	-0.0797049	0.0867839	0.334742	1.52911	0	0
0.17	1.28833	1.55325	-2.81269	0.658368	1.86338	0.959858	-0.078374	-0.0295572	-0.16647	0.0237157	0.0150772	0	0	-0.124799	0.0397672	-0.091415	0.0161376	0.0695244	0	0	0.0293783	-0.0255585	0.00311513	-0.0205405	-0.0638086	-0.323691	0.2114	1.5708	0	0	-0.0641106	-0.0821362	0.0743071	0.336749	1.54988	0	0
0.18	1.28994	1.55281	-2.81571	0.658191	1.86321	0.959776	-0.0772643	-0.0303964	-0.165623	0.026358	0.0169141	0	0	-0.124602	0.040356	-0.0931605	0.0172884	0.0707154	0	0	0.0298988	-0.025573	0.00631953	-0.0231418	-0.0645745	-0.308758	0.21916	1.5708	0	0	-0.0669091	-0.0868671	0.0941945	0.345689	1.49829	0	0
0.19	1.42096	1.55449	-2.94831	0.658331	1.86324	0.959582	-0.0718247	-0.0302859	-0.164772	0.0310979	0.0186384	0	0	-0.12018	0.0397156	-0.0951885	0.0204506	0.0728695	0	0	0.0331621	-0.0230276	0.00897624	-0.0235428	-0.0662024	-0.301193	0.222363	1.5708	0	0	-0.0679961	-0.0879596	0.0966541	0.348326	1.47995	0	0
0.2	1.45599	1.55413	-2.98066	0.658559	1.8631	0.959502	-0.0711395	-0.0310652	-0.168294	0.0324754	0.0198578	0	0	-0.117583	0.0400294	-0.0933823	0.0241971	0.0747938	0	0	0.0339967	-0.0231784	0.007131	-0.0228466	-0.0658833	-0.296134	0.22372	1.5708	0	0	-0.0683092	-0.0903137	0.0966414	0.349374	1.4682	0	0
0.21	1.47942	1.55394	-2.9997	0.65902	1.86298	0.959445	-0.0714207	-0.0316278	-0.173208	0.0328017	0.0207151	0	0	-0.114812	0.0402309	-0.0887266	0.0283018	0.0765487	0	0	0.0345082	-0.0231185	0.00370422	-0.0219855	-0.0656766	-0.292028	0.224481	1.5708	0	0	-0.0681663	-0.0923716	0.0956085	0.349732	1.46033	0	0
0.22	1.4596	1.55337	-2.98235	0.658851	1.86323	0.959419	-0.0695113	-0.0329203	-0.170919	0.0364339	0.0224792	0	0	-0.112621	0.0411305	-0.0914173	0.0329686	0.0788847	0	0	0.0328614	-0.0228841	0.00661423	-0.0199009	-0.0662165	-0.284087	0.226411	1.5708	0	0	-0.0660413	-0.0938801	0.0951706	0.348438	1.44737	0	0
